<mxfile host="app.diagrams.net" modified="2023-04-10T22:35:02.868Z" agent="Mozilla/5.0 (Macintosh; Intel Mac OS X 10_15_7) AppleWebKit/605.1.15 (KHTML, like Gecko) Version/15.6.1 Safari/605.1.15" etag="AbGj95UoHY26KABAsWuY" version="21.1.4" type="github">
  <diagram name="Page-1" id="nNsKs0kdJAPujGUbkFt8">
    <mxGraphModel dx="794" dy="473" grid="1" gridSize="10" guides="1" tooltips="1" connect="1" arrows="1" fold="1" page="1" pageScale="1" pageWidth="827" pageHeight="1169" math="0" shadow="0">
      <root>
        <mxCell id="0" />
        <mxCell id="1" parent="0" />
        <mxCell id="oX610Gi30Hjm9PIVmk-e-1" value="Actor" style="shape=umlActor;verticalLabelPosition=bottom;verticalAlign=top;html=1;outlineConnect=0;" vertex="1" parent="1">
          <mxGeometry x="240" y="200" width="40" height="80" as="geometry" />
        </mxCell>
        <mxCell id="oX610Gi30Hjm9PIVmk-e-10" value="Include" style="edgeStyle=orthogonalEdgeStyle;rounded=0;orthogonalLoop=1;jettySize=auto;html=1;" edge="1" parent="1" source="oX610Gi30Hjm9PIVmk-e-9">
          <mxGeometry relative="1" as="geometry">
            <mxPoint x="500" y="350" as="targetPoint" />
          </mxGeometry>
        </mxCell>
        <mxCell id="oX610Gi30Hjm9PIVmk-e-12" style="edgeStyle=orthogonalEdgeStyle;rounded=0;orthogonalLoop=1;jettySize=auto;html=1;exitX=1;exitY=1;exitDx=0;exitDy=0;" edge="1" parent="1" source="oX610Gi30Hjm9PIVmk-e-9">
          <mxGeometry relative="1" as="geometry">
            <mxPoint x="500" y="460" as="targetPoint" />
          </mxGeometry>
        </mxCell>
        <mxCell id="oX610Gi30Hjm9PIVmk-e-14" value="Exclude&lt;br&gt;" style="edgeLabel;html=1;align=center;verticalAlign=middle;resizable=0;points=[];" vertex="1" connectable="0" parent="oX610Gi30Hjm9PIVmk-e-12">
          <mxGeometry x="-0.4069" y="1" relative="1" as="geometry">
            <mxPoint as="offset" />
          </mxGeometry>
        </mxCell>
        <mxCell id="oX610Gi30Hjm9PIVmk-e-9" value="Login" style="ellipse;whiteSpace=wrap;html=1;" vertex="1" parent="1">
          <mxGeometry x="200" y="360" width="120" height="70" as="geometry" />
        </mxCell>
        <mxCell id="oX610Gi30Hjm9PIVmk-e-11" value="Validar Senha" style="ellipse;whiteSpace=wrap;html=1;" vertex="1" parent="1">
          <mxGeometry x="440" y="260" width="120" height="80" as="geometry" />
        </mxCell>
        <mxCell id="oX610Gi30Hjm9PIVmk-e-13" value="Recuperar Senha" style="ellipse;whiteSpace=wrap;html=1;" vertex="1" parent="1">
          <mxGeometry x="440" y="470" width="120" height="80" as="geometry" />
        </mxCell>
      </root>
    </mxGraphModel>
  </diagram>
</mxfile>
